<mxfile host="Electron" agent="Mozilla/5.0 (X11; Linux x86_64) AppleWebKit/537.36 (KHTML, like Gecko) draw.io/24.7.5 Chrome/126.0.6478.183 Electron/31.3.0 Safari/537.36" version="24.7.5">
  <diagram name="Page-1" id="e7e014a7-5840-1c2e-5031-d8a46d1fe8dd">
    <mxGraphModel dx="1206" dy="550" grid="1" gridSize="10" guides="1" tooltips="1" connect="1" arrows="1" fold="1" page="1" pageScale="1" pageWidth="1169" pageHeight="826" background="none" math="0" shadow="0">
      <root>
        <mxCell id="0" />
        <mxCell id="1" parent="0" />
        <mxCell id="xgSSdrMasH2BgEjWOLaf-41" value="USER" style="swimlane;whiteSpace=wrap" vertex="1" parent="1">
          <mxGeometry x="454.5" y="138" width="280" height="1032" as="geometry" />
        </mxCell>
        <mxCell id="xgSSdrMasH2BgEjWOLaf-42" style="edgeStyle=orthogonalEdgeStyle;rounded=0;orthogonalLoop=1;jettySize=auto;html=1;" edge="1" parent="xgSSdrMasH2BgEjWOLaf-41" source="xgSSdrMasH2BgEjWOLaf-43" target="xgSSdrMasH2BgEjWOLaf-45">
          <mxGeometry relative="1" as="geometry" />
        </mxCell>
        <mxCell id="xgSSdrMasH2BgEjWOLaf-43" value="" style="ellipse;shape=startState;fillColor=#000000;strokeColor=#ff0000;" vertex="1" parent="xgSSdrMasH2BgEjWOLaf-41">
          <mxGeometry x="125" y="40" width="30" height="30" as="geometry" />
        </mxCell>
        <mxCell id="xgSSdrMasH2BgEjWOLaf-44" style="edgeStyle=orthogonalEdgeStyle;rounded=0;orthogonalLoop=1;jettySize=auto;html=1;" edge="1" parent="xgSSdrMasH2BgEjWOLaf-41" source="xgSSdrMasH2BgEjWOLaf-45" target="xgSSdrMasH2BgEjWOLaf-53">
          <mxGeometry relative="1" as="geometry" />
        </mxCell>
        <mxCell id="xgSSdrMasH2BgEjWOLaf-45" value="Enter build name" style="rounded=1;" vertex="1" parent="xgSSdrMasH2BgEjWOLaf-41">
          <mxGeometry x="85" y="102" width="110" height="50" as="geometry" />
        </mxCell>
        <mxCell id="xgSSdrMasH2BgEjWOLaf-46" style="edgeStyle=orthogonalEdgeStyle;rounded=0;orthogonalLoop=1;jettySize=auto;html=1;" edge="1" parent="xgSSdrMasH2BgEjWOLaf-41" source="xgSSdrMasH2BgEjWOLaf-47" target="xgSSdrMasH2BgEjWOLaf-49">
          <mxGeometry relative="1" as="geometry" />
        </mxCell>
        <mxCell id="xgSSdrMasH2BgEjWOLaf-47" value="Enter build &#xa;description" style="rounded=1;" vertex="1" parent="xgSSdrMasH2BgEjWOLaf-41">
          <mxGeometry x="85" y="330" width="110" height="50" as="geometry" />
        </mxCell>
        <mxCell id="xgSSdrMasH2BgEjWOLaf-48" style="edgeStyle=orthogonalEdgeStyle;rounded=0;orthogonalLoop=1;jettySize=auto;html=1;" edge="1" parent="xgSSdrMasH2BgEjWOLaf-41" source="xgSSdrMasH2BgEjWOLaf-49" target="xgSSdrMasH2BgEjWOLaf-50">
          <mxGeometry relative="1" as="geometry" />
        </mxCell>
        <mxCell id="xgSSdrMasH2BgEjWOLaf-49" value="Enter build &#xa;stats" style="rounded=1;" vertex="1" parent="xgSSdrMasH2BgEjWOLaf-41">
          <mxGeometry x="85" y="412" width="110" height="50" as="geometry" />
        </mxCell>
        <mxCell id="xgSSdrMasH2BgEjWOLaf-50" value="Enter build steps" style="rounded=1;" vertex="1" parent="xgSSdrMasH2BgEjWOLaf-41">
          <mxGeometry x="85" y="482" width="110" height="50" as="geometry" />
        </mxCell>
        <mxCell id="xgSSdrMasH2BgEjWOLaf-51" style="edgeStyle=orthogonalEdgeStyle;rounded=0;orthogonalLoop=1;jettySize=auto;html=1;" edge="1" parent="xgSSdrMasH2BgEjWOLaf-41" source="xgSSdrMasH2BgEjWOLaf-53" target="xgSSdrMasH2BgEjWOLaf-47">
          <mxGeometry relative="1" as="geometry" />
        </mxCell>
        <mxCell id="xgSSdrMasH2BgEjWOLaf-52" value="No" style="edgeLabel;html=1;align=center;verticalAlign=middle;resizable=0;points=[];" vertex="1" connectable="0" parent="xgSSdrMasH2BgEjWOLaf-51">
          <mxGeometry x="-0.149" relative="1" as="geometry">
            <mxPoint as="offset" />
          </mxGeometry>
        </mxCell>
        <mxCell id="xgSSdrMasH2BgEjWOLaf-53" value="Enter&amp;nbsp;&lt;div&gt;Thumbnail?&lt;/div&gt;" style="rhombus;whiteSpace=wrap;html=1;" vertex="1" parent="xgSSdrMasH2BgEjWOLaf-41">
          <mxGeometry x="90" y="192" width="100" height="70" as="geometry" />
        </mxCell>
        <mxCell id="xgSSdrMasH2BgEjWOLaf-54" value="WEB" style="swimlane;whiteSpace=wrap" vertex="1" parent="1">
          <mxGeometry x="734.5" y="138" width="280" height="1032" as="geometry" />
        </mxCell>
        <mxCell id="xgSSdrMasH2BgEjWOLaf-55" style="edgeStyle=orthogonalEdgeStyle;rounded=0;orthogonalLoop=1;jettySize=auto;html=1;" edge="1" parent="xgSSdrMasH2BgEjWOLaf-54" source="xgSSdrMasH2BgEjWOLaf-57" target="xgSSdrMasH2BgEjWOLaf-59">
          <mxGeometry relative="1" as="geometry" />
        </mxCell>
        <mxCell id="xgSSdrMasH2BgEjWOLaf-56" value="Yes" style="edgeLabel;html=1;align=center;verticalAlign=middle;resizable=0;points=[];" vertex="1" connectable="0" parent="xgSSdrMasH2BgEjWOLaf-55">
          <mxGeometry x="-0.6999" y="-3" relative="1" as="geometry">
            <mxPoint x="3" as="offset" />
          </mxGeometry>
        </mxCell>
        <mxCell id="xgSSdrMasH2BgEjWOLaf-57" value="Thumbnail&lt;div&gt;&amp;lt;400kb?&lt;/div&gt;" style="rhombus;whiteSpace=wrap;html=1;" vertex="1" parent="xgSSdrMasH2BgEjWOLaf-54">
          <mxGeometry x="90" y="188" width="100" height="78" as="geometry" />
        </mxCell>
        <mxCell id="xgSSdrMasH2BgEjWOLaf-58" value="Inputs are&amp;nbsp;&lt;div&gt;valid?&lt;/div&gt;" style="rhombus;whiteSpace=wrap;html=1;" vertex="1" parent="xgSSdrMasH2BgEjWOLaf-54">
          <mxGeometry x="90" y="468" width="100" height="78" as="geometry" />
        </mxCell>
        <mxCell id="xgSSdrMasH2BgEjWOLaf-59" value="&lt;div&gt;Format&lt;/div&gt;&lt;div&gt;jpg, jpeg,&amp;nbsp;&lt;/div&gt;&lt;div&gt;or png?&lt;/div&gt;" style="rhombus;whiteSpace=wrap;html=1;" vertex="1" parent="xgSSdrMasH2BgEjWOLaf-54">
          <mxGeometry x="90" y="352" width="100" height="78" as="geometry" />
        </mxCell>
        <mxCell id="xgSSdrMasH2BgEjWOLaf-60" value="SERVER" style="swimlane;whiteSpace=wrap;startSize=23;" vertex="1" parent="1">
          <mxGeometry x="1014.5" y="138" width="280" height="1032" as="geometry" />
        </mxCell>
        <mxCell id="xgSSdrMasH2BgEjWOLaf-61" style="edgeStyle=orthogonalEdgeStyle;rounded=0;orthogonalLoop=1;jettySize=auto;html=1;" edge="1" parent="xgSSdrMasH2BgEjWOLaf-60" source="xgSSdrMasH2BgEjWOLaf-63" target="xgSSdrMasH2BgEjWOLaf-68">
          <mxGeometry relative="1" as="geometry">
            <mxPoint x="140" y="582" as="targetPoint" />
          </mxGeometry>
        </mxCell>
        <mxCell id="xgSSdrMasH2BgEjWOLaf-62" value="Yes" style="edgeLabel;html=1;align=center;verticalAlign=middle;resizable=0;points=[];" vertex="1" connectable="0" parent="xgSSdrMasH2BgEjWOLaf-61">
          <mxGeometry x="-0.4874" relative="1" as="geometry">
            <mxPoint as="offset" />
          </mxGeometry>
        </mxCell>
        <mxCell id="xgSSdrMasH2BgEjWOLaf-63" value="Inputs are&amp;nbsp;&lt;div&gt;valid?&lt;/div&gt;" style="rhombus;whiteSpace=wrap;html=1;" vertex="1" parent="xgSSdrMasH2BgEjWOLaf-60">
          <mxGeometry x="90" y="468" width="100" height="78" as="geometry" />
        </mxCell>
        <mxCell id="xgSSdrMasH2BgEjWOLaf-64" style="edgeStyle=orthogonalEdgeStyle;rounded=0;orthogonalLoop=1;jettySize=auto;html=1;entryX=0;entryY=0.5;entryDx=0;entryDy=0;exitX=0;exitY=0.5;exitDx=0;exitDy=0;" edge="1" parent="xgSSdrMasH2BgEjWOLaf-60" source="xgSSdrMasH2BgEjWOLaf-68" target="xgSSdrMasH2BgEjWOLaf-70">
          <mxGeometry relative="1" as="geometry" />
        </mxCell>
        <mxCell id="xgSSdrMasH2BgEjWOLaf-65" value="No" style="edgeLabel;html=1;align=center;verticalAlign=middle;resizable=0;points=[];" vertex="1" connectable="0" parent="xgSSdrMasH2BgEjWOLaf-64">
          <mxGeometry x="-0.5762" y="-1" relative="1" as="geometry">
            <mxPoint as="offset" />
          </mxGeometry>
        </mxCell>
        <mxCell id="xgSSdrMasH2BgEjWOLaf-66" style="edgeStyle=orthogonalEdgeStyle;rounded=0;orthogonalLoop=1;jettySize=auto;html=1;exitX=1;exitY=0.5;exitDx=0;exitDy=0;" edge="1" parent="xgSSdrMasH2BgEjWOLaf-60" source="xgSSdrMasH2BgEjWOLaf-68" target="xgSSdrMasH2BgEjWOLaf-72">
          <mxGeometry relative="1" as="geometry" />
        </mxCell>
        <mxCell id="xgSSdrMasH2BgEjWOLaf-67" value="Yes" style="edgeLabel;html=1;align=center;verticalAlign=middle;resizable=0;points=[];" vertex="1" connectable="0" parent="xgSSdrMasH2BgEjWOLaf-66">
          <mxGeometry x="0.1774" y="1" relative="1" as="geometry">
            <mxPoint as="offset" />
          </mxGeometry>
        </mxCell>
        <mxCell id="xgSSdrMasH2BgEjWOLaf-68" value="Input has&amp;nbsp;&lt;div&gt;thumbnail?&lt;/div&gt;" style="rhombus;whiteSpace=wrap;html=1;" vertex="1" parent="xgSSdrMasH2BgEjWOLaf-60">
          <mxGeometry x="90" y="592" width="100" height="78" as="geometry" />
        </mxCell>
        <mxCell id="xgSSdrMasH2BgEjWOLaf-69" style="edgeStyle=orthogonalEdgeStyle;rounded=0;orthogonalLoop=1;jettySize=auto;html=1;" edge="1" parent="xgSSdrMasH2BgEjWOLaf-60" source="xgSSdrMasH2BgEjWOLaf-70" target="xgSSdrMasH2BgEjWOLaf-73">
          <mxGeometry relative="1" as="geometry" />
        </mxCell>
        <mxCell id="xgSSdrMasH2BgEjWOLaf-70" value="Save data to &#xa;database" style="rounded=1;" vertex="1" parent="xgSSdrMasH2BgEjWOLaf-60">
          <mxGeometry x="85" y="772" width="110" height="50" as="geometry" />
        </mxCell>
        <mxCell id="xgSSdrMasH2BgEjWOLaf-71" style="edgeStyle=orthogonalEdgeStyle;rounded=0;orthogonalLoop=1;jettySize=auto;html=1;entryX=1;entryY=0.5;entryDx=0;entryDy=0;" edge="1" parent="xgSSdrMasH2BgEjWOLaf-60" source="xgSSdrMasH2BgEjWOLaf-72" target="xgSSdrMasH2BgEjWOLaf-70">
          <mxGeometry relative="1" as="geometry" />
        </mxCell>
        <mxCell id="xgSSdrMasH2BgEjWOLaf-72" value="Save thumbnail&#xa;to storage bucket" style="rounded=1;" vertex="1" parent="xgSSdrMasH2BgEjWOLaf-60">
          <mxGeometry x="165.5" y="682" width="110" height="50" as="geometry" />
        </mxCell>
        <mxCell id="xgSSdrMasH2BgEjWOLaf-73" value="" style="ellipse;html=1;shape=endState;fillColor=#000000;strokeColor=#ff0000;" vertex="1" parent="xgSSdrMasH2BgEjWOLaf-60">
          <mxGeometry x="125" y="862" width="30" height="30" as="geometry" />
        </mxCell>
        <mxCell id="xgSSdrMasH2BgEjWOLaf-74" style="edgeStyle=orthogonalEdgeStyle;rounded=0;orthogonalLoop=1;jettySize=auto;html=1;entryX=0;entryY=0.5;entryDx=0;entryDy=0;" edge="1" parent="1" source="xgSSdrMasH2BgEjWOLaf-53" target="xgSSdrMasH2BgEjWOLaf-57">
          <mxGeometry relative="1" as="geometry" />
        </mxCell>
        <mxCell id="xgSSdrMasH2BgEjWOLaf-75" value="Yes" style="edgeLabel;html=1;align=center;verticalAlign=middle;resizable=0;points=[];" vertex="1" connectable="0" parent="xgSSdrMasH2BgEjWOLaf-74">
          <mxGeometry x="-0.8355" y="2" relative="1" as="geometry">
            <mxPoint as="offset" />
          </mxGeometry>
        </mxCell>
        <mxCell id="xgSSdrMasH2BgEjWOLaf-76" style="edgeStyle=orthogonalEdgeStyle;rounded=0;orthogonalLoop=1;jettySize=auto;html=1;" edge="1" parent="1" source="xgSSdrMasH2BgEjWOLaf-50" target="xgSSdrMasH2BgEjWOLaf-58">
          <mxGeometry relative="1" as="geometry" />
        </mxCell>
        <mxCell id="xgSSdrMasH2BgEjWOLaf-77" style="edgeStyle=orthogonalEdgeStyle;rounded=0;orthogonalLoop=1;jettySize=auto;html=1;" edge="1" parent="1" source="xgSSdrMasH2BgEjWOLaf-58" target="xgSSdrMasH2BgEjWOLaf-63">
          <mxGeometry relative="1" as="geometry">
            <mxPoint x="1099.5" y="645" as="targetPoint" />
          </mxGeometry>
        </mxCell>
        <mxCell id="xgSSdrMasH2BgEjWOLaf-78" value="Yes" style="edgeLabel;html=1;align=center;verticalAlign=middle;resizable=0;points=[];" vertex="1" connectable="0" parent="xgSSdrMasH2BgEjWOLaf-77">
          <mxGeometry x="-0.6575" y="-1" relative="1" as="geometry">
            <mxPoint y="-1" as="offset" />
          </mxGeometry>
        </mxCell>
        <mxCell id="xgSSdrMasH2BgEjWOLaf-79" style="edgeStyle=orthogonalEdgeStyle;rounded=0;orthogonalLoop=1;jettySize=auto;html=1;entryX=0;entryY=0.5;entryDx=0;entryDy=0;exitX=0.5;exitY=1;exitDx=0;exitDy=0;" edge="1" parent="1" source="xgSSdrMasH2BgEjWOLaf-58" target="xgSSdrMasH2BgEjWOLaf-45">
          <mxGeometry relative="1" as="geometry">
            <Array as="points">
              <mxPoint x="875" y="730" />
              <mxPoint x="500" y="730" />
              <mxPoint x="500" y="265" />
            </Array>
          </mxGeometry>
        </mxCell>
        <mxCell id="xgSSdrMasH2BgEjWOLaf-80" value="No" style="edgeLabel;html=1;align=center;verticalAlign=middle;resizable=0;points=[];" vertex="1" connectable="0" parent="xgSSdrMasH2BgEjWOLaf-79">
          <mxGeometry x="-0.9668" relative="1" as="geometry">
            <mxPoint as="offset" />
          </mxGeometry>
        </mxCell>
        <mxCell id="xgSSdrMasH2BgEjWOLaf-81" style="edgeStyle=orthogonalEdgeStyle;rounded=0;orthogonalLoop=1;jettySize=auto;html=1;" edge="1" parent="1" source="xgSSdrMasH2BgEjWOLaf-59" target="xgSSdrMasH2BgEjWOLaf-47">
          <mxGeometry relative="1" as="geometry" />
        </mxCell>
        <mxCell id="xgSSdrMasH2BgEjWOLaf-82" value="Yes" style="edgeLabel;html=1;align=center;verticalAlign=middle;resizable=0;points=[];" vertex="1" connectable="0" parent="xgSSdrMasH2BgEjWOLaf-81">
          <mxGeometry x="-0.8009" y="1" relative="1" as="geometry">
            <mxPoint as="offset" />
          </mxGeometry>
        </mxCell>
        <mxCell id="xgSSdrMasH2BgEjWOLaf-83" style="edgeStyle=orthogonalEdgeStyle;rounded=0;orthogonalLoop=1;jettySize=auto;html=1;entryX=1;entryY=0.5;entryDx=0;entryDy=0;" edge="1" parent="1" source="xgSSdrMasH2BgEjWOLaf-57" target="xgSSdrMasH2BgEjWOLaf-45">
          <mxGeometry relative="1" as="geometry">
            <Array as="points">
              <mxPoint x="960" y="365" />
              <mxPoint x="960" y="265" />
            </Array>
          </mxGeometry>
        </mxCell>
        <mxCell id="xgSSdrMasH2BgEjWOLaf-84" value="No" style="edgeLabel;html=1;align=center;verticalAlign=middle;resizable=0;points=[];" vertex="1" connectable="0" parent="xgSSdrMasH2BgEjWOLaf-83">
          <mxGeometry x="-0.9552" y="1" relative="1" as="geometry">
            <mxPoint y="1" as="offset" />
          </mxGeometry>
        </mxCell>
        <mxCell id="xgSSdrMasH2BgEjWOLaf-85" style="edgeStyle=orthogonalEdgeStyle;rounded=0;orthogonalLoop=1;jettySize=auto;html=1;entryX=1;entryY=0.5;entryDx=0;entryDy=0;" edge="1" parent="1" source="xgSSdrMasH2BgEjWOLaf-59" target="xgSSdrMasH2BgEjWOLaf-45">
          <mxGeometry relative="1" as="geometry">
            <Array as="points">
              <mxPoint x="960" y="529" />
              <mxPoint x="960" y="265" />
            </Array>
          </mxGeometry>
        </mxCell>
        <mxCell id="xgSSdrMasH2BgEjWOLaf-86" value="No" style="edgeLabel;html=1;align=center;verticalAlign=middle;resizable=0;points=[];" vertex="1" connectable="0" parent="xgSSdrMasH2BgEjWOLaf-85">
          <mxGeometry x="-0.9607" y="1" relative="1" as="geometry">
            <mxPoint as="offset" />
          </mxGeometry>
        </mxCell>
        <mxCell id="xgSSdrMasH2BgEjWOLaf-87" style="edgeStyle=orthogonalEdgeStyle;rounded=0;orthogonalLoop=1;jettySize=auto;html=1;entryX=1;entryY=0.5;entryDx=0;entryDy=0;" edge="1" parent="1" source="xgSSdrMasH2BgEjWOLaf-63" target="xgSSdrMasH2BgEjWOLaf-45">
          <mxGeometry relative="1" as="geometry">
            <Array as="points">
              <mxPoint x="1240" y="645" />
              <mxPoint x="1240" y="265" />
            </Array>
          </mxGeometry>
        </mxCell>
        <mxCell id="xgSSdrMasH2BgEjWOLaf-88" value="No" style="edgeLabel;html=1;align=center;verticalAlign=middle;resizable=0;points=[];" vertex="1" connectable="0" parent="xgSSdrMasH2BgEjWOLaf-87">
          <mxGeometry x="-0.9737" y="2" relative="1" as="geometry">
            <mxPoint x="3" y="2" as="offset" />
          </mxGeometry>
        </mxCell>
      </root>
    </mxGraphModel>
  </diagram>
</mxfile>
